<svg xmlns="http://www.w3.org/2000/svg" viewBox="0 0 64 64">
  <rect width="64" height="64" rx="15" fill="#6D28D9"/>
  <!-- ears -->
  <path d="M14 13 L31 25 L18 31 Z" fill="#F26B21"/>
  <path d="M50 13 L33 25 L46 31 Z" fill="#F26B21"/>
  <path d="M18 17 L28 25 L21 28 Z" fill="#FFC79E"/>
  <path d="M46 17 L36 25 L43 28 Z" fill="#FFC79E"/>
  <!-- head -->
  <path d="M15 23 L49 23 L44 39 L32 47 L20 39 Z" fill="#F26B21"/>
  <!-- white muzzle -->
  <path d="M24 37 L40 37 L32 47 Z" fill="#FFFFFF"/>
  <!-- eyes -->
  <path d="M21 29 L29 29 L25 34 Z" fill="#241B33"/>
  <path d="M43 29 L35 29 L39 34 Z" fill="#241B33"/>
  <!-- nose -->
  <path d="M30 41 L34 41 L32 44 Z" fill="#241B33"/>
</svg>
